<svg width="102" height="99" viewBox="0 0 102 99" fill="none" xmlns="http://www.w3.org/2000/svg">
<path d="M50.9999 0.94572C37.8605 0.817884 25.2075 5.88715 15.8216 15.0396C6.43564 24.192 1.08459 36.6787 0.944336 49.7558C1.08519 62.8325 6.4365 75.3187 15.8224 84.4706C25.2083 93.6225 37.8608 98.6915 50.9999 98.5636C64.1389 98.6915 76.7915 93.6225 86.1774 84.4706C95.5633 75.3187 100.915 62.8325 101.055 49.7558C100.915 36.6787 95.5641 24.192 86.1782 15.0396C76.7922 5.88715 64.1393 0.817884 50.9999 0.94572ZM50.9999 15.5777C53.8973 15.6367 56.7127 16.5458 59.093 18.1911C61.4733 19.8364 63.3125 22.1446 64.3798 24.8261C65.4472 27.5077 65.6952 30.4432 65.0928 33.2645C64.4904 36.0858 63.0644 38.6672 60.9936 40.6851C58.9228 42.7029 56.2995 44.0672 53.4527 44.607C50.6059 45.1467 47.6623 44.8378 44.9911 43.719C42.32 42.6002 40.0403 40.7213 38.4379 38.318C36.8355 35.9147 35.9818 33.094 35.9839 30.2097C36.0028 28.2672 36.4064 26.3474 37.1716 24.5602C37.9368 22.7731 39.0485 21.1537 40.4432 19.7946C41.838 18.4356 43.4883 17.3636 45.2997 16.64C47.1111 15.9164 49.0481 15.5554 50.9999 15.5777ZM50.9999 84.8861C45.0855 84.9042 39.2564 83.4814 34.0216 80.7417C28.7867 78.0021 24.3051 74.029 20.9679 69.1691C21.1172 59.4737 40.9779 54.1477 50.9999 54.1477C60.9517 54.1477 80.8826 59.4669 81.0319 69.1803C77.6947 74.0402 73.213 78.0134 67.9782 80.753C62.7433 83.4926 56.9143 84.9155 50.9999 84.8973V84.8861Z" fill="#9D9D9D"/>
</svg>
